# xmcd
#
# Track frame offsets:
#       150
#       14156
#       31036
#       38309
#       45839
#
# Disc length: 766 seconds
#
# Revision: 1
# Processed by: cddbd v1.5.2PL0 Copyright (c) Steve Scherf et al.
# Submitted via: FreeDbEdit v0.1
#
DISCID=2902fc05
DTITLE=Laurie Z. - Junior Jam Session
DYEAR=1993
DGENRE=Jazz
TTITLE0=Orffin Blues
TTITLE1=Playalong track - Blues in E
TTITLE2=Playalong track - Changes in C slow
TTITLE3=Playalong track - Changes in C fast
TTITLE4=Playalong track - Funk in a minor
EXTD=YEAR: 1993
EXTT0=
EXTT1=
EXTT2=
EXTT3=
EXTT4=
PLAYORDER=
